<svg xmlns="http://www.w3.org/2000/svg" viewBox="0 0 1200 780" width="1200" height="780">
  <defs>
    <linearGradient id="bg" x1="0" y1="0" x2="1" y2="1">
      <stop offset="0%" stop-color="#0a1a0a"/>
      <stop offset="50%" stop-color="#0f2414"/>
      <stop offset="100%" stop-color="#0a1a0a"/>
    </linearGradient>
    <linearGradient id="gradSoil" x1="0" y1="0" x2="0" y2="1">
      <stop offset="0%" stop-color="#4ade80"/>
      <stop offset="100%" stop-color="#166534"/>
    </linearGradient>
    <linearGradient id="gradDWC" x1="0" y1="0" x2="0" y2="1">
      <stop offset="0%" stop-color="#38bdf8"/>
      <stop offset="100%" stop-color="#0c4a6e"/>
    </linearGradient>
    <linearGradient id="gradGold" x1="0" y1="0" x2="0" y2="1">
      <stop offset="0%" stop-color="#fde68a"/>
      <stop offset="50%" stop-color="#f59e0b"/>
      <stop offset="100%" stop-color="#b45309"/>
    </linearGradient>
    <filter id="glow">
      <feGaussianBlur stdDeviation="4" result="coloredBlur"/>
      <feMerge>
        <feMergeNode in="coloredBlur"/>
        <feMergeNode in="SourceGraphic"/>
      </feMerge>
    </filter>
    <filter id="goldGlow">
      <feGaussianBlur stdDeviation="5" result="blur"/>
      <feMerge>
        <feMergeNode in="blur"/>
        <feMergeNode in="SourceGraphic"/>
      </feMerge>
    </filter>
    <!-- Arc path for curved "CANNA COMMUNITY" text -->
    <path id="topArc" d="M 510,122 A 92,92 0 0 0 690,122"/>
  </defs>

  <!-- Background -->
  <rect width="1200" height="780" fill="url(#bg)"/>

  <!-- Decorative leaves (subtle, repositioned away from center logo) -->
  <g opacity="0.06" fill="#4ade80">
    <circle cx="80"  cy="150" r="80"/>
    <circle cx="1120" cy="660" r="90"/>
    <circle cx="130" cy="640" r="60"/>
    <circle cx="1080" cy="180" r="70"/>
  </g>

  <!-- ══════════════════════════════════════════════════
       CANNA COMMUNITY GERMANY LOGO (centered at 600,122)
       ══════════════════════════════════════════════════ -->
  <g transform="translate(600,122)" filter="url(#goldGlow)">

    <!-- Shield outer (bigger: ±100 wide, -108 to +120 tall) -->
    <path d="M0,-108 C56,-108 100,-84 100,-48 L100,28 C100,78 58,108 0,122 C-58,108 -100,78 -100,28 L-100,-48 C-100,-84 -56,-108 0,-108 Z"
          fill="#0d1500" stroke="url(#gradGold)" stroke-width="5"/>

    <!-- Shield inner decorative border -->
    <path d="M0,-95 C48,-95 87,-73 87,-42 L87,24 C87,68 52,95 0,108 C-52,95 -87,68 -87,24 L-87,-42 C-87,-73 -48,-95 0,-95 Z"
          fill="none" stroke="#fbbf24" stroke-width="1.5" opacity="0.4"/>

    <!-- Cannabis leaf — 7 fingers, each starting exactly from (0,0) -->
    <!-- cy = -ry ensures bottom of ellipse sits at y=0 (shared center) -->
    <g fill="#f59e0b">
      <g transform="rotate(0)">   <ellipse cx="0" cy="-28" rx="6"   ry="28"/></g>
      <g transform="rotate(28)">  <ellipse cx="0" cy="-24" rx="5.5" ry="24"/></g>
      <g transform="rotate(-28)"> <ellipse cx="0" cy="-24" rx="5.5" ry="24"/></g>
      <g transform="rotate(54)">  <ellipse cx="0" cy="-19" rx="5"   ry="19"/></g>
      <g transform="rotate(-54)"> <ellipse cx="0" cy="-19" rx="5"   ry="19"/></g>
      <g transform="rotate(78)">  <ellipse cx="0" cy="-13" rx="4"   ry="13"/></g>
      <g transform="rotate(-78)"> <ellipse cx="0" cy="-13" rx="4"   ry="13"/></g>
      <!-- Stem -->
      <rect x="-3" y="0" width="6" height="26" rx="3"/>
    </g>

    <!-- Stars (pairs left/right of leaf) -->
    <text x="-58" y="-38" text-anchor="middle" font-size="14" fill="#fde68a">✦</text>
    <text x="58"  y="-38" text-anchor="middle" font-size="14" fill="#fde68a">✦</text>
    <text x="-72" y="5"  text-anchor="middle" font-size="10" fill="#fbbf24">✦</text>
    <text x="72"  y="5"  text-anchor="middle" font-size="10" fill="#fbbf24">✦</text>

    <!-- Divider line above GERMANY -->
    <line x1="-55" y1="44" x2="55" y2="44" stroke="#fbbf24" stroke-width="1.2" opacity="0.7"/>

    <!-- GERMANY -->
    <text x="0" y="64" text-anchor="middle"
          font-family="Arial Black, Arial, sans-serif"
          font-size="22" font-weight="900"
          fill="url(#gradGold)" letter-spacing="4">GERMANY</text>

    <!-- Divider line below GERMANY -->
    <line x1="-55" y1="72" x2="55" y2="72" stroke="#fbbf24" stroke-width="1.2" opacity="0.7"/>

    <!-- EST.2025 -->
    <text x="0" y="90" text-anchor="middle"
          font-family="Arial, sans-serif" font-size="13" font-weight="bold"
          fill="#d97706" letter-spacing="3">EST.2025</text>

  </g>

  <!-- Curved "CANNA COMMUNITY" text along top arc of shield -->
  <text font-family="Arial Black, Arial, sans-serif" font-size="13" font-weight="900"
        fill="#fde68a" letter-spacing="3">
    <textPath href="#topArc" startOffset="50%" text-anchor="middle">CANNA COMMUNITY</textPath>
  </text>

  <!-- ══════════════════════════════════════════════════
       TITLE
       ══════════════════════════════════════════════════ -->
  <text x="600" y="250" text-anchor="middle" font-family="Arial, sans-serif"
        font-size="42" font-weight="900" fill="#f0fdf4" filter="url(#glow)">
    🌱 GROWER EDITION TOOLS
  </text>
  <text x="600" y="284" text-anchor="middle" font-family="Arial, sans-serif"
        font-size="18" fill="#a7f3d0" letter-spacing="4">
    KOSTENLOS · OFFLINE · OPEN SOURCE
  </text>
  <text x="600" y="318" text-anchor="middle" font-family="Arial, sans-serif"
        font-size="20" fill="#86efac" font-style="italic">
    Zwei Schwester-Tools. Ein Ziel: dein perfekter Grow.
  </text>

  <!-- ══════════════════════════════════════════════════
       LEFT CARD: Soil &amp; Coco
       ══════════════════════════════════════════════════ -->
  <g transform="translate(60, 345)">
    <rect width="510" height="380" rx="20" fill="#0a1a0a" stroke="url(#gradSoil)" stroke-width="3"/>
    <text x="30" y="55" font-family="Arial, sans-serif" font-size="32" font-weight="900" fill="#4ade80">🌍 SOIL &amp; COCO</text>
    <text x="30" y="85" font-family="Arial, sans-serif" font-size="18" fill="#a7f3d0">Grower Edition</text>

    <line x1="30" y1="110" x2="480" y2="110" stroke="#166534" stroke-width="1"/>

    <text x="30" y="145" font-family="Arial, sans-serif" font-size="15" fill="#d1fae5">Für Erde &amp; Coco-Grower</text>
    <text x="30" y="180" font-family="Arial, sans-serif" font-size="14" fill="#86efac">✓ 25 Dünger-Marken im Kalkulator</text>
    <text x="30" y="205" font-family="Arial, sans-serif" font-size="14" fill="#86efac">✓ pH · EC · Temperatur-Tracking</text>
    <text x="30" y="230" font-family="Arial, sans-serif" font-size="14" fill="#86efac">✓ Runoff-Monitoring (Salz-Check)</text>
    <text x="30" y="255" font-family="Arial, sans-serif" font-size="14" fill="#86efac">✓ Gieß- &amp; Nährstoff-Erinnerung</text>
    <text x="30" y="280" font-family="Arial, sans-serif" font-size="14" fill="#86efac">✓ Grow-Tagebuch mit Chart</text>
    <text x="30" y="305" font-family="Arial, sans-serif" font-size="14" fill="#86efac">✓ Gemini KI-Assistent</text>

    <rect x="30" y="325" width="450" height="40" rx="8" fill="#166534"/>
    <text x="255" y="350" text-anchor="middle" font-family="Arial, sans-serif" font-size="13" font-weight="bold" fill="#f0fdf4">danielenki420.github.io/soil-coco-grower-edition</text>
  </g>

  <!-- ══════════════════════════════════════════════════
       RIGHT CARD: DWC
       ══════════════════════════════════════════════════ -->
  <g transform="translate(630, 345)">
    <rect width="510" height="380" rx="20" fill="#0a1a1f" stroke="url(#gradDWC)" stroke-width="3"/>
    <text x="30" y="55" font-family="Arial, sans-serif" font-size="32" font-weight="900" fill="#38bdf8">💧 DWC</text>
    <text x="30" y="85" font-family="Arial, sans-serif" font-size="18" fill="#bae6fd">Grower Edition</text>

    <line x1="30" y1="110" x2="480" y2="110" stroke="#0c4a6e" stroke-width="1"/>

    <text x="30" y="145" font-family="Arial, sans-serif" font-size="15" fill="#e0f2fe">Für Hydroponik / DWC-Grower</text>
    <text x="30" y="180" font-family="Arial, sans-serif" font-size="14" fill="#7dd3fc">✓ 13 Hydro-Marken in der Bibliothek</text>
    <text x="30" y="205" font-family="Arial, sans-serif" font-size="14" fill="#7dd3fc">✓ pH · EC · Temp · ORP-Alerts</text>
    <text x="30" y="230" font-family="Arial, sans-serif" font-size="14" fill="#7dd3fc">✓ EC-Nachfüll-Rechner</text>
    <text x="30" y="255" font-family="Arial, sans-serif" font-size="14" fill="#7dd3fc">✓ Wasserwechsel-Erinnerung</text>
    <text x="30" y="280" font-family="Arial, sans-serif" font-size="14" fill="#7dd3fc">✓ Ernte-Countdown</text>
    <text x="30" y="305" font-family="Arial, sans-serif" font-size="14" fill="#7dd3fc">✓ 6 Sprachen + Gemini KI</text>

    <rect x="30" y="325" width="450" height="40" rx="8" fill="#0c4a6e"/>
    <text x="255" y="350" text-anchor="middle" font-family="Arial, sans-serif" font-size="13" font-weight="bold" fill="#f0f9ff">danielenki420.github.io/dwc-grower-edition</text>
  </g>

  <!-- Footer -->
  <text x="600" y="758" text-anchor="middle" font-family="Arial, sans-serif" font-size="14" fill="#64748b">
    Single HTML · Vanilla JS · MIT License · Made with ☕ by DanielEnki420
  </text>
</svg>
